<?xml version="1.0" encoding="UTF-8"?>
<svg version="1.1" xmlns="http://www.w3.org/2000/svg"
     width="162.000000pt" height="192.000000pt" viewBox="0 0 162.000000 192.000000">
  <g transform="translate(0.000000,192.000000) scale(0.100000,-0.100000)">
    <g fill="#000000">
      <path d="M686 1710 c-115 -29 -224 -122 -279 -238 -29 -61 -32 -75 -32 -167 0 -94 2 -104 36 -175 20 -41 71 -122 114 -180 42 -58 92 -134 110 -170 55 -109 123 -341 137 -470 2 -14 10 -26 21 -28 13 -3 17 3 17 25 0 44 45 232 80 335 42 121 78 188 174 323 104 145 137 218 143 315 12 173 -80 326 -243 402 -54 25 -81 31 -152 34 -48 2 -104 -1 -126 -6z m183 -297 c85 -63 75 -186 -20 -236 -92 -49 -208 33 -195 137 12 104 133 159 215 99z"/>
    </g>
  </g>
</svg>