<?xml version="1.0" encoding="UTF-8"?>
<svg version="1.1" xmlns="http://www.w3.org/2000/svg"
     width="162.000000pt" height="192.000000pt" viewBox="0 0 162.000000 192.000000">
  <g transform="translate(0.000000,192.000000) scale(0.100000,-0.100000)">
    <g fill="#000000">
      <path d="M293 1661 c-94 -35 -166 -102 -210 -196 -23 -50 -28 -73 -28 -140 0 -99 18 -141 133 -310 45 -66 95 -153 112 -194 37 -91 78 -238 88 -317 11 -87 32 -80 48 16 34 197 96 350 204 500 105 146 125 195 125 305 0 78 -4 97 -28 147 -36 73 -101 139 -174 174 -75 37 -193 44 -270 15z m193 -262 c66 -62 35 -179 -53 -195 -69 -13 -133 39 -133 108 0 50 13 74 53 99 40 25 99 20 133 -12z M649 562 l-185 -317 230 -3 c177 -2 231 1 238 10 4 7 8 31 8 54 0 23 3 62 6 88 l7 46 63 0 63 0 5 -32 c3 -18 7 -62 10 -97 4 -35 8 -66 10 -68 1 -2 107 -2 234 -1 l231 3 -196 318 -195 317 -68 0 -68 0 5 -40 6 -40 -38 0 -37 0 7 40 7 40 -79 0 -78 0 -186 -318z m415 97 c3 -34 6 -79 6 -100 l0 -39 -56 0 -57 0 7 61 c3 34 6 79 6 100 l0 39 44 0 43 0 7 -61z"/>
    </g>
  </g>
</svg>