<?xml version="1.0" encoding="UTF-8"?>
<svg version="1.1" xmlns="http://www.w3.org/2000/svg"
     width="162.000000pt" height="192.000000pt" viewBox="0 0 162.000000 192.000000">
  <g transform="translate(0.000000,192.000000) scale(0.100000,-0.100000)">
    <g fill="#000000">
      <path d="M591 1293 c-118 -180 -217 -339 -219 -355 -6 -37 20 -75 55 -82 17 -4 65 4 118 19 49 14 93 25 97 25 5 0 8 -63 8 -140 l0 -140 160 0 160 0 0 140 c0 77 3 140 8 140 4 0 48 -11 97 -25 52 -14 102 -23 117 -19 33 7 58 39 58 74 0 18 -75 140 -220 358 -120 183 -220 332 -222 331 -2 0 -100 -147 -217 -326z M650 520 l0 -60 160 0 160 0 0 60 0 60 -160 0 -160 0 0 -60z M650 360 l0 -60 160 0 160 0 0 60 0 60 -160 0 -160 0 0 -60z"/>
    </g>
  </g>
</svg>