<?xml version="1.0" encoding="UTF-8"?>
<svg version="1.1" xmlns="http://www.w3.org/2000/svg"
     width="162.000000pt" height="192.000000pt" viewBox="0 0 162.000000 192.000000">
  <g transform="translate(0.000000,192.000000) scale(0.100000,-0.100000)">
    <g fill="#000000">
      <path d="M423 1785 c-49 -30 -65 -61 -119 -228 -36 -109 -41 -120 -72 -134 -18 -9 -45 -32 -60 -51 l-27 -35 -3 -209 -3 -208 65 0 66 0 0 -61 c0 -71 10 -93 50 -114 37 -19 73 -19 110 0 40 21 50 43 50 114 l0 61 325 0 325 0 0 -61 c0 -33 5 -69 10 -80 13 -24 61 -49 95 -49 34 0 82 25 95 49 5 11 10 47 10 80 l0 61 66 0 65 0 -3 208 -3 209 -27 35 c-15 19 -42 42 -61 51 -32 15 -35 22 -66 134 -44 159 -63 198 -115 228 l-43 25 -344 0 -344 0 -42 -25z m721 -124 c10 -11 27 -59 37 -108 11 -48 22 -96 25 -105 5 -17 -19 -18 -400 -18 -223 0 -406 4 -406 8 0 33 61 218 76 229 14 10 90 13 334 13 300 0 318 -1 334 -19z m-704 -336 c101 -52 62 -225 -50 -225 -39 0 -88 31 -104 65 -20 41 -20 68 -1 109 28 60 96 82 155 51z m840 0 c66 -34 78 -130 24 -186 -93 -97 -241 20 -179 141 28 55 98 75 155 45z M0 670 l0 -190 165 0 c91 0 165 -3 165 -7 0 -5 -45 -64 -100 -131 -55 -68 -100 -126 -100 -129 0 -9 92 -113 100 -113 4 0 59 56 121 125 l114 125 340 0 340 0 114 -125 c62 -69 117 -125 121 -125 8 0 100 104 100 113 0 3 -45 61 -100 129 -55 67 -100 126 -100 131 0 4 77 7 170 7 l170 0 0 190 0 190 -75 0 -75 0 0 -95 0 -95 -665 0 -665 0 0 95 0 95 -70 0 -70 0 0 -190z"/>
    </g>
  </g>
</svg>