<?xml version="1.0" encoding="UTF-8"?>
<svg version="1.1" xmlns="http://www.w3.org/2000/svg"
     width="162.000000pt" height="192.000000pt" viewBox="0 0 162.000000 192.000000">
  <g transform="translate(0.000000,192.000000) scale(0.100000,-0.100000)">
    <g fill="#000000">
      <path d="M570 1720 l0 -120 -144 0 c-132 0 -146 -2 -177 -23 -18 -12 -44 -38 -56 -56 -22 -33 -23 -42 -23 -242 l0 -207 -65 -22 c-66 -22 -95 -47 -95 -85 0 -11 34 -143 77 -294 l78 -273 52 5 c69 7 144 42 216 100 l57 47 57 -47 c96 -77 151 -98 263 -98 112 0 167 21 263 98 l57 47 57 -47 c72 -58 147 -93 216 -100 l53 -5 77 274 c42 151 77 283 77 294 0 36 -29 62 -95 84 l-65 22 0 207 c0 200 -1 209 -23 242 -12 18 -38 44 -56 56 -31 21 -45 23 -177 23 l-144 0 0 120 0 120 -240 0 -240 0 0 -120z m720 -435 c0 -85 -3 -155 -7 -155 -4 0 -112 34 -240 75 l-233 76 -233 -76 c-128 -41 -236 -75 -240 -75 -4 0 -7 70 -7 155 l0 155 480 0 480 0 0 -155z M410 303 c-83 -42 -179 -63 -302 -63 l-98 0 0 -81 0 -81 148 4 c128 4 157 8 222 32 110 40 116 40 168 18 65 -28 188 -52 266 -52 78 0 189 22 257 51 53 23 59 23 169 -17 65 -24 94 -28 223 -32 l147 -4 0 81 0 81 -97 0 c-124 0 -219 20 -311 65 l-72 36 -63 -31 c-89 -43 -159 -60 -257 -60 -98 0 -168 17 -256 60 -34 16 -65 29 -70 28 -5 0 -38 -16 -74 -35z"/>
    </g>
  </g>
</svg>