<?xml version="1.0" encoding="UTF-8"?>
<svg version="1.1" xmlns="http://www.w3.org/2000/svg"
     width="162.000000pt" height="192.000000pt" viewBox="0 0 162.000000 192.000000">
  <g transform="translate(0.000000,192.000000) scale(0.100000,-0.100000)">
    <g fill="#808080">
      <path d="M1060 1368 c-17 -24 -57 -94 -87 -155 l-56 -112 36 -118 c56 -180 95 -406 98 -575 l2 -63 8 70 c25 219 33 269 54 360 39 168 100 314 174 424 16 25 28 48 26 51 -5 9 -212 160 -218 160 -3 0 -19 -19 -37 -42z"/>
    </g>
    <g fill="#000000">
      <path d="M304 1755 c-4 -8 -1 -148 5 -311 12 -321 14 -334 67 -334 25 0 49 21 97 88 17 23 33 42 36 42 3 0 22 -26 42 -58 139 -218 205 -481 216 -859 l6 -203 143 0 144 0 0 88 c0 257 -38 550 -97 742 -39 131 -120 308 -182 399 -24 34 -41 64 -39 65 1 2 32 13 68 26 77 28 100 45 100 77 0 34 -30 54 -133 89 -51 18 -177 61 -280 98 -152 53 -189 63 -193 51z"/>
    </g>
  </g>
</svg>