<?xml version="1.0" encoding="UTF-8"?>
<svg version="1.1" xmlns="http://www.w3.org/2000/svg"
     width="162.000000pt" height="192.000000pt" viewBox="0 0 162.000000 192.000000">
  <g transform="translate(0.000000,192.000000) scale(0.100000,-0.100000)">
    <g fill="#000000">
      <path d="M600 1558 c-91 -133 -169 -252 -173 -265 -11 -31 15 -73 46 -73 12 0 51 9 87 20 36 11 66 20 68 20 9 0 -1 -100 -17 -163 -24 -90 -42 -128 -134 -272 -81 -126 -138 -244 -162 -330 -9 -33 -19 -115 -22 -182 l-6 -123 140 0 140 0 6 98 c8 134 34 207 122 350 42 67 78 122 80 122 2 0 38 -55 80 -122 88 -143 114 -216 122 -350 l6 -98 139 0 138 0 0 83 c0 197 -45 331 -185 547 -86 133 -113 187 -136 278 -16 62 -26 162 -16 162 1 0 31 -9 67 -20 36 -11 75 -20 87 -20 31 0 59 44 47 75 -14 37 -338 504 -349 504 -5 0 -84 -108 -175 -241z"/>
    </g>
  </g>
</svg>