<?xml version="1.0" encoding="UTF-8"?>
<svg version="1.1" xmlns="http://www.w3.org/2000/svg"
     width="162.000000pt" height="192.000000pt" viewBox="0 0 162.000000 192.000000">
  <g transform="translate(0.000000,192.000000) scale(0.100000,-0.100000)">
    <g fill="#808080">
      <path d="M1207 1674 c-4 -4 -7 -108 -7 -230 l0 -223 54 -61 c120 -138 196 -319 230 -550 2 -14 3 220 2 520 l-1 545 -136 3 c-74 1 -138 -1 -142 -4z"/>
    </g>
    <g fill="#000000">
      <path d="M478 1578 c-159 -56 -288 -105 -288 -110 0 -9 350 -422 387 -455 30 -28 57 -29 83 -3 17 17 20 33 20 100 0 44 2 80 3 80 2 0 30 -9 62 -20 160 -55 309 -182 377 -320 59 -122 71 -182 77 -390 l6 -185 144 -3 144 -3 -6 193 c-6 199 -18 278 -66 412 -59 167 -182 328 -326 431 -75 53 -201 117 -280 141 -33 10 -61 19 -63 20 -2 1 15 32 37 68 23 37 41 77 41 91 0 23 -33 56 -55 55 -5 -1 -139 -47 -297 -102z"/>
    </g>
  </g>
</svg>