<?xml version="1.0" encoding="UTF-8"?>
<svg version="1.1" xmlns="http://www.w3.org/2000/svg"
     width="162.000000pt" height="192.000000pt" viewBox="0 0 162.000000 192.000000">
  <g transform="translate(0.000000,192.000000) scale(0.100000,-0.100000)">
    <g fill="#808080">
      <path d="M930 1091 c0 -90 -21 -134 -78 -163 l-33 -16 30 -7 c84 -18 161 -121 161 -215 0 -43 -24 -106 -52 -141 -21 -26 -89 -69 -109 -69 -11 0 -19 -4 -19 -10 0 -5 6 -10 13 -10 7 0 29 -16 48 -36 33 -34 34 -38 38 -125 4 -103 0 -101 102 -48 97 52 180 145 229 259 35 81 40 233 11 328 -25 82 -85 176 -148 232 -45 39 -154 100 -180 100 -10 0 -13 -20 -13 -79z"/>
    </g>
    <g fill="#000000">
      <path d="M611 1591 c-173 -253 -188 -283 -155 -315 20 -21 35 -20 119 4 38 11 71 20 72 20 2 0 3 -27 3 -59 l0 -60 -73 -35 c-132 -63 -227 -173 -268 -308 -18 -58 -21 -88 -17 -174 4 -97 7 -109 46 -188 55 -111 128 -184 233 -234 l78 -37 1 -62 0 -63 141 0 140 0 -3 154 -3 155 -34 35 c-34 35 -45 39 -132 51 -132 17 -220 159 -178 286 29 86 96 137 195 149 73 9 106 27 134 73 17 28 20 51 20 175 0 78 1 142 3 142 1 0 34 -9 72 -20 38 -11 78 -20 87 -20 24 0 48 28 48 56 0 25 -333 524 -350 524 -5 0 -85 -112 -179 -249z"/>
    </g>
  </g>
</svg>