<?xml version="1.0" encoding="UTF-8"?>
<svg version="1.1" xmlns="http://www.w3.org/2000/svg"
     width="162.000000pt" height="192.000000pt" viewBox="0 0 162.000000 192.000000">
  <g transform="translate(0.000000,192.000000) scale(0.100000,-0.100000)">
    <g fill="#808080">
      <path d="M881 1263 c-2 -33 -58 -91 -99 -103 -20 -5 -65 -10 -99 -10 l-63 0 20 -52 c44 -115 149 -230 263 -286 110 -54 105 -57 109 52 3 84 6 97 28 121 14 15 39 34 55 41 27 12 28 13 7 14 -12 0 -44 11 -70 24 -74 38 -127 105 -142 179 -4 23 -8 32 -9 20z"/>
    </g>
    <g fill="#000000">
      <path d="M1010 1824 c-157 -41 -282 -145 -353 -294 l-42 -89 -72 -1 c-40 0 -73 1 -73 3 0 1 9 31 20 67 11 36 20 74 20 86 0 29 -34 57 -62 52 -13 -2 -119 -69 -235 -149 l-212 -144 -1 -57 0 -57 205 -141 c246 -169 246 -168 280 -146 30 20 31 40 6 128 l-19 66 158 4 c142 3 162 5 186 24 48 35 64 66 73 140 18 144 119 238 256 238 70 0 121 -20 173 -68 109 -100 115 -260 14 -370 -36 -38 -118 -76 -165 -76 -48 0 -95 -20 -127 -55 l-25 -27 -3 -419 -3 -419 141 0 140 0 0 323 1 322 87 42 c89 43 157 99 213 175 l29 41 0 272 0 272 -31 46 c-64 98 -206 191 -327 216 -72 15 -185 13 -252 -5z"/>
    </g>
  </g>
</svg>