<?xml version="1.0" encoding="UTF-8"?>
<svg version="1.1" xmlns="http://www.w3.org/2000/svg"
     width="162.000000pt" height="192.000000pt" viewBox="0 0 162.000000 192.000000">
  <g transform="translate(0.000000,192.000000) scale(0.100000,-0.100000)">
    <g fill="#808080">
      <path d="M996 1534 c-13 -34 -5 -60 28 -86 49 -39 154 -182 193 -263 40 -83 67 -171 87 -280 14 -77 14 -65 15 283 l1 362 -159 0 c-136 0 -160 -2 -165 -16z M990 295 l0 -215 163 2 162 3 3 213 2 212 -165 0 -165 0 0 -215z"/>
    </g>
    <g fill="#000000">
      <path d="M876 1745 l-209 -84 -76 24 c-86 28 -159 32 -201 10 -67 -35 -105 -125 -81 -197 19 -57 66 -93 161 -122 141 -43 147 -48 292 -221 l133 -160 6 35 6 35 17 -39 c40 -89 58 -188 63 -353 l6 -163 163 0 164 0 0 149 c0 216 -32 377 -103 526 -41 84 -142 221 -198 267 l-40 34 60 168 c34 93 61 171 61 172 0 8 -23 0 -224 -81z"/>
    </g>
  </g>
</svg>