<?xml version="1.0" encoding="UTF-8"?>
<svg version="1.1" xmlns="http://www.w3.org/2000/svg"
     width="162.000000pt" height="192.000000pt" viewBox="0 0 162.000000 192.000000">
  <g transform="translate(0.000000,192.000000) scale(0.100000,-0.100000)">
    <g fill="#808080">
      <path d="M431 1148 c-67 -147 -76 -306 -26 -455 34 -100 66 -154 141 -233 70 -73 143 -121 239 -156 l65 -24 0 83 c0 93 17 133 71 166 l32 19 -44 12 c-62 17 -95 35 -146 83 -67 62 -95 125 -101 225 -5 90 10 150 54 209 l24 31 -39 -15 c-62 -24 -101 -11 -176 59 l-65 60 -29 -64z"/>
    </g>
    <g fill="#000000">
      <path d="M40 1828 c0 -27 102 -565 112 -590 5 -15 19 -30 30 -34 40 -12 62 4 101 76 l39 71 132 -129 c106 -104 140 -132 169 -137 46 -9 96 8 139 46 18 16 56 42 83 57 44 24 61 27 145 27 79 0 103 -4 141 -23 150 -74 227 -237 185 -388 -43 -149 -175 -254 -320 -254 -50 0 -99 -28 -126 -72 -18 -30 -20 -51 -20 -215 l0 -183 140 0 139 0 3 101 3 101 50 17 c273 96 440 345 422 625 -7 106 -23 161 -72 254 -73 140 -204 249 -358 297 -147 47 -319 34 -456 -34 l-59 -29 -66 67 c-36 37 -66 69 -66 73 0 3 30 23 68 43 73 40 82 49 82 81 0 43 -28 53 -331 109 -162 30 -297 55 -301 55 -5 0 -8 -6 -8 -12z"/>
    </g>
  </g>
</svg>