<?xml version="1.0" encoding="UTF-8"?>
<svg version="1.1" xmlns="http://www.w3.org/2000/svg"
     width="162.000000pt" height="192.000000pt" viewBox="0 0 162.000000 192.000000">
  <g transform="translate(0.000000,192.000000) scale(0.100000,-0.100000)">
    <g fill="#808080">
      <path d="M555 1826 c-329 -76 -544 -342 -545 -672 0 -228 120 -444 316 -570 57 -36 165 -84 191 -84 10 0 13 21 13 81 0 116 27 167 105 194 l37 12 -43 7 c-142 23 -258 131 -295 276 -43 171 39 341 204 422 60 30 75 33 157 33 76 0 99 -4 145 -26 31 -14 72 -40 92 -58 20 -17 38 -31 41 -31 3 0 45 56 92 125 71 103 84 129 75 141 -26 31 -159 104 -235 130 -98 33 -256 42 -350 20z"/>
    </g>
    <g fill="#000000">
      <path d="M1108 1598 c-200 -289 -278 -409 -278 -426 0 -31 29 -62 58 -62 15 0 56 9 92 20 36 11 69 20 74 20 16 0 -3 -103 -29 -155 -13 -28 -45 -71 -69 -95 -73 -72 -135 -98 -278 -115 -57 -7 -105 -39 -129 -85 -17 -31 -19 -62 -19 -327 l0 -293 160 0 160 0 0 204 0 204 63 21 c96 32 184 88 268 171 61 61 85 95 123 170 45 92 75 199 76 268 0 17 3 32 8 32 4 0 36 -9 72 -20 36 -11 77 -20 91 -20 35 0 62 32 57 67 -4 28 -372 573 -387 573 -4 0 -55 -69 -113 -152z"/>
    </g>
  </g>
</svg>