<?xml version="1.0" encoding="UTF-8"?>
<svg version="1.1" xmlns="http://www.w3.org/2000/svg"
     width="162.000000pt" height="192.000000pt" viewBox="0 0 162.000000 192.000000">
  <g transform="translate(0.000000,192.000000) scale(0.100000,-0.100000)">
    <g fill="#808080">
      <path d="M826 1824 c-173 -42 -320 -184 -372 -359 -24 -82 -22 -210 5 -295 33 -103 31 -102 99 -38 65 62 110 78 168 60 19 -5 34 -9 34 -8 0 1 -9 19 -20 41 -45 89 -11 225 72 285 107 78 264 49 334 -62 35 -56 44 -149 20 -213 -20 -51 -92 -120 -137 -130 -41 -9 -42 -19 -5 -39 51 -27 66 -62 66 -155 0 -61 3 -81 13 -81 37 0 147 69 210 131 84 84 132 178 149 294 22 154 -33 316 -146 429 -130 131 -312 183 -490 140z"/>
    </g>
    <g fill="#000000">
      <path d="M630 1189 c-14 -5 -70 -55 -125 -110 l-101 -99 -40 72 c-35 63 -45 73 -71 76 -34 3 -60 -17 -68 -51 -31 -140 -104 -572 -98 -578 13 -12 595 100 616 119 12 10 17 27 15 46 -3 25 -13 36 -68 68 -36 20 -69 39 -75 41 -5 3 10 25 35 51 l45 46 57 -23 58 -22 0 -372 0 -373 140 0 140 0 0 456 c0 509 2 492 -70 533 -21 12 -55 21 -76 21 -44 0 -131 37 -154 65 -32 39 -107 55 -160 34z"/>
    </g>
  </g>
</svg>