<?xml version="1.0" encoding="UTF-8"?>
<svg version="1.1" xmlns="http://www.w3.org/2000/svg"
     width="162.000000pt" height="192.000000pt" viewBox="0 0 162.000000 192.000000">
  <g transform="translate(0.000000,192.000000) scale(0.100000,-0.100000)">
    <g fill="#808080">
      <path d="M1210 1773 c0 -38 -3 -92 -6 -120 -4 -29 -3 -53 2 -53 5 0 31 36 58 80 26 43 57 87 68 97 18 16 20 16 29 1 5 -9 16 -24 24 -32 8 -8 15 -19 15 -24 0 -6 4 -12 8 -14 4 -1 23 -24 42 -50 18 -27 34 -47 36 -45 1 1 0 53 -3 115 l-6 112 -133 0 -134 0 0 -67z M1466 897 c-47 -163 -142 -330 -233 -411 -22 -19 -23 -26 -23 -193 l0 -173 134 0 133 0 7 416 c4 229 6 417 4 419 -2 2 -12 -24 -22 -58z"/>
    </g>
    <g fill="#000000">
      <path d="M1324 1768 c-11 -13 -40 -54 -65 -93 -24 -38 -47 -74 -52 -80 -36 -46 -225 -345 -230 -363 -8 -33 23 -65 62 -64 18 0 38 5 44 10 7 6 36 17 65 25 59 18 55 25 52 -78 -2 -117 -44 -241 -121 -355 -44 -65 -117 -142 -159 -167 -17 -9 -30 -21 -30 -25 0 -4 -6 -8 -14 -8 -8 0 -16 -4 -18 -8 -9 -21 -192 -96 -338 -138 -52 -15 -98 -30 -102 -34 -8 -6 64 -266 76 -278 7 -6 269 68 276 79 3 4 28 14 55 22 88 26 253 124 335 198 l35 31 6 -83 5 -84 2 96 c2 85 4 98 25 115 59 53 133 161 177 258 61 138 91 272 94 424 l1 54 35 -6 c19 -3 45 -9 58 -12 22 -6 22 -6 22 108 l0 115 -37 49 c-21 27 -41 51 -45 52 -5 2 -8 10 -8 17 0 7 -3 15 -8 17 -4 2 -30 35 -57 73 -27 39 -53 72 -57 73 -4 2 -8 10 -8 18 0 8 -4 14 -8 14 -5 0 -15 11 -22 25 -16 31 -21 31 -46 3z M1482 570 c0 -14 2 -19 5 -12 2 6 2 18 0 25 -3 6 -5 1 -5 -13z"/>
    </g>
  </g>
</svg>