<?xml version="1.0" encoding="UTF-8"?>
<svg version="1.1" xmlns="http://www.w3.org/2000/svg"
     width="162.000000pt" height="192.000000pt" viewBox="0 0 162.000000 192.000000">
  <g transform="translate(0.000000,192.000000) scale(0.100000,-0.100000)">
    <g fill="#808080">
      <path d="M603 1140 c-120 -60 -215 -173 -254 -302 -29 -95 -24 -247 11 -328 49 -114 132 -207 229 -259 102 -53 98 -55 102 48 4 87 5 91 38 125 19 20 41 36 48 36 7 0 13 5 13 10 0 6 -8 10 -19 10 -20 0 -88 43 -109 69 -28 35 -52 98 -52 141 0 94 77 197 161 215 l30 7 -33 16 c-57 29 -78 73 -78 163 0 59 -3 79 -13 79 -8 0 -41 -14 -74 -30z"/>
    </g>
    <g fill="#000000">
      <path d="M651 1590 c-107 -156 -171 -259 -171 -274 0 -28 24 -56 48 -56 9 0 49 9 87 20 38 11 71 20 72 20 2 0 3 -64 3 -142 0 -124 3 -147 20 -175 28 -46 61 -64 134 -73 99 -12 166 -63 195 -149 42 -127 -46 -269 -178 -286 -87 -12 -98 -16 -132 -51 l-34 -35 -3 -155 -3 -154 140 0 141 0 0 63 1 62 78 37 c105 50 178 123 233 234 39 79 42 91 46 188 4 86 1 116 -17 174 -41 135 -136 245 -268 308 l-73 35 0 60 c0 32 1 59 3 59 1 0 34 -9 72 -20 38 -11 78 -20 87 -20 24 0 48 28 48 56 0 26 -333 524 -350 524 -5 0 -85 -112 -179 -250z"/>
    </g>
  </g>
</svg>