<?xml version="1.0" encoding="UTF-8"?>
<svg version="1.1" xmlns="http://www.w3.org/2000/svg"
     width="162.000000pt" height="192.000000pt" viewBox="0 0 162.000000 192.000000">
  <g transform="translate(0.000000,192.000000) scale(0.100000,-0.100000)">
    <g fill="#808080">
      <path d="M930 1504 c-86 -14 -143 -29 -202 -56 l-68 -31 60 -63 c64 -69 80 -112 63 -169 l-10 -32 60 31 c123 63 272 43 376 -50 206 -185 112 -518 -164 -579 l-30 -7 31 -13 c55 -23 79 -69 83 -162 2 -63 6 -83 17 -83 31 0 138 51 199 94 117 84 205 212 240 351 18 69 20 211 4 287 -43 209 -235 409 -444 461 -65 17 -175 27 -215 21z"/>
    </g>
    <g fill="#000000">
      <path d="M36 1832 c-10 -16 105 -596 122 -615 10 -12 27 -17 46 -15 25 3 36 13 68 68 20 36 39 70 41 75 3 6 36 -21 75 -59 l70 -68 -29 -62 c-48 -103 -62 -177 -57 -301 4 -92 10 -122 35 -187 68 -173 213 -314 372 -364 l61 -19 0 -102 0 -103 145 0 145 0 0 178 c0 153 -2 182 -19 212 -28 53 -59 70 -142 81 -136 17 -234 83 -291 198 -18 37 -23 63 -23 136 0 105 17 152 83 228 23 26 44 63 48 81 13 70 -2 94 -137 232 l-129 131 72 39 c64 34 73 43 76 70 5 54 -12 60 -324 119 -324 61 -301 58 -308 47z"/>
    </g>
  </g>
</svg>