<?xml version="1.0" encoding="UTF-8"?>
<svg version="1.1" xmlns="http://www.w3.org/2000/svg"
     width="162.000000pt" height="192.000000pt" viewBox="0 0 162.000000 192.000000">
  <g transform="translate(0.000000,192.000000) scale(0.100000,-0.100000)">
    <g fill="#808080">
      <path d="M797 1060 c24 -61 11 -100 -57 -174 l-60 -63 59 -27 c32 -14 61 -26 65 -26 3 0 6 36 6 80 0 52 5 91 15 110 17 33 65 70 92 71 10 0 -4 6 -30 13 -27 7 -61 23 -77 34 l-28 21 15 -39z"/>
    </g>
    <g fill="#000000">
      <path d="M823 1826 c-187 -46 -340 -195 -397 -385 -32 -107 -16 -283 33 -380 l20 -38 -54 -53 -53 -52 -38 68 c-21 38 -43 72 -48 76 -23 16 -66 8 -80 -14 -13 -22 -116 -550 -116 -598 0 -18 4 -21 22 -17 13 3 147 29 297 57 151 28 283 56 292 61 21 11 32 42 24 68 -3 10 -31 32 -63 50 -31 17 -64 35 -72 40 -11 8 8 33 97 123 146 150 153 180 68 293 -52 70 -70 127 -62 199 7 69 36 125 89 170 42 36 118 66 168 66 86 0 192 -65 231 -143 27 -52 35 -142 19 -193 -35 -107 -114 -170 -231 -185 -44 -5 -81 -17 -100 -30 -59 -42 -59 -38 -59 -504 l0 -425 140 0 140 0 0 345 c0 320 1 346 18 351 74 24 168 82 224 137 108 106 158 230 158 387 0 150 -52 274 -159 381 -133 133 -328 188 -508 145z"/>
    </g>
  </g>
</svg>