<?xml version="1.0" encoding="UTF-8"?>
<svg version="1.1" xmlns="http://www.w3.org/2000/svg"
     width="162.000000pt" height="192.000000pt" viewBox="0 0 162.000000 192.000000">
  <g transform="translate(0.000000,192.000000) scale(0.100000,-0.100000)">
    <g fill="#000000">
      <path d="M733 1756 c-166 -40 -305 -167 -364 -331 -30 -84 -30 -236 0 -319 29 -81 62 -135 116 -191 l46 -47 -3 -87 -3 -88 -78 22 c-77 23 -77 23 -102 3 -14 -11 -25 -29 -25 -41 0 -24 339 -521 355 -522 5 0 41 45 79 100 187 270 276 406 276 420 0 9 -11 27 -24 40 l-23 23 -79 -22 -79 -23 -5 146 c-6 169 -9 178 -94 240 -68 50 -96 105 -96 185 0 129 91 219 221 218 96 0 168 -52 204 -146 34 -90 3 -185 -82 -251 -75 -58 -83 -80 -83 -225 0 -122 0 -122 23 -116 71 22 93 19 120 -14 15 -17 27 -41 27 -53 0 -12 -38 -82 -85 -156 l-85 -135 0 -118 0 -118 140 0 140 0 0 357 0 356 49 52 c117 123 161 313 113 486 -71 255 -344 417 -599 355z"/>
    </g>
  </g>
</svg>