<?xml version="1.0" encoding="UTF-8"?>
<svg version="1.1" xmlns="http://www.w3.org/2000/svg"
     width="162.000000pt" height="192.000000pt" viewBox="0 0 162.000000 192.000000">
  <g transform="translate(0.000000,192.000000) scale(0.100000,-0.100000)">
    <g fill="#808080">
      <path d="M520 1045 c-141 -29 -267 -89 -378 -178 -34 -28 -62 -53 -62 -56 0 -3 43 -49 96 -102 l97 -97 49 38 c98 78 242 130 363 130 113 0 250 -46 338 -114 l47 -36 -42 52 c-55 68 -115 181 -148 283 -27 79 -28 80 -66 87 -63 11 -224 7 -294 -7z"/>
    </g>
    <g fill="#000000">
      <path d="M811 1481 c-185 -270 -196 -294 -146 -327 24 -16 30 -16 98 4 39 12 73 19 75 17 2 -1 8 -36 13 -77 24 -177 98 -332 234 -483 110 -124 155 -217 171 -354 l7 -61 144 0 144 0 -5 33 c-3 17 -8 59 -12 92 -18 169 -100 331 -253 500 -67 74 -113 156 -135 241 -22 84 -21 117 2 110 131 -38 132 -38 157 -22 30 20 39 49 24 78 -19 35 -329 487 -339 493 -5 3 -85 -107 -179 -244z"/>
    </g>
  </g>
</svg>