<?xml version="1.0" encoding="UTF-8"?>
<svg version="1.1" xmlns="http://www.w3.org/2000/svg"
     width="162.000000pt" height="192.000000pt" viewBox="0 0 162.000000 192.000000">
  <g transform="translate(0.000000,192.000000) scale(0.100000,-0.100000)">
    <g fill="#808080">
      <path d="M785 1826 c-33 -8 -84 -24 -114 -35 -55 -22 -183 -101 -195 -120 -6 -10 158 -261 171 -261 3 0 21 14 41 31 20 18 61 44 92 58 46 22 69 26 145 26 82 0 97 -3 157 -33 165 -81 247 -251 204 -422 -37 -145 -153 -253 -295 -276 l-43 -7 37 -12 c78 -27 105 -78 105 -194 0 -60 3 -81 13 -81 7 0 40 11 73 24 370 145 540 578 365 931 -116 234 -328 371 -591 381 -68 2 -126 -1 -165 -10z"/>
    </g>
    <g fill="#000000">
      <path d="M204 1478 c-104 -150 -190 -286 -192 -301 -5 -35 22 -67 57 -67 14 0 55 9 91 20 36 11 68 20 73 20 4 0 7 -15 7 -32 1 -69 31 -176 76 -268 77 -156 226 -286 391 -341 l63 -21 0 -204 0 -204 160 0 160 0 0 293 c0 265 -2 296 -19 327 -24 46 -72 78 -129 85 -143 17 -205 43 -278 115 -24 24 -56 67 -69 95 -26 52 -45 155 -29 155 5 0 38 -9 74 -20 36 -11 77 -20 92 -20 29 0 58 31 58 62 0 9 -39 75 -86 145 -167 248 -298 433 -305 433 -4 0 -92 -123 -195 -272z"/>
    </g>
  </g>
</svg>