<?xml version="1.0" encoding="UTF-8"?>
<svg version="1.1" xmlns="http://www.w3.org/2000/svg"
     width="162.000000pt" height="192.000000pt" viewBox="0 0 162.000000 192.000000">
  <g transform="translate(0.000000,192.000000) scale(0.100000,-0.100000)">
    <g fill="#808080">
      <path d="M1183 1556 l-22 -44 25 -33 24 -33 0 77 c0 42 -1 77 -3 77 -2 0 -13 -20 -24 -44z M913 1083 l-53 -4 0 -495 0 -494 175 0 175 0 0 494 0 493 -77 7 c-75 6 -119 6 -220 -1z"/>
    </g>
    <g fill="#000000">
      <path d="M965 1816 c-35 -15 -67 -51 -135 -156 -66 -100 -238 -315 -474 -590 -106 -124 -201 -238 -211 -254 -15 -23 -20 -53 -23 -147 l-4 -119 181 0 181 0 0 61 0 60 143 167 c78 92 155 183 170 201 27 33 32 34 125 43 102 10 173 7 416 -18 81 -8 150 -13 153 -11 2 3 -58 89 -133 193 -75 104 -150 206 -165 228 l-28 39 24 48 c41 81 29 164 -31 221 -52 48 -126 61 -189 34z"/>
    </g>
  </g>
</svg>