<?xml version="1.0" encoding="UTF-8"?>
<svg version="1.1" xmlns="http://www.w3.org/2000/svg"
     width="162.000000pt" height="192.000000pt" viewBox="0 0 162.000000 192.000000">
  <g transform="translate(0.000000,192.000000) scale(0.100000,-0.100000)">
    <g fill="#808080">
      <path d="M1011 1789 c-172 -30 -350 -186 -396 -346 -6 -23 -5 -23 77 -23 63 0 90 -4 108 -17 32 -22 59 -55 60 -70 0 -19 20 -16 20 2 0 50 70 133 132 159 46 20 138 21 181 3 194 -82 188 -363 -9 -433 l-51 -18 38 -19 c53 -26 79 -82 79 -170 0 -49 4 -67 13 -67 35 0 145 68 201 124 318 315 117 851 -329 880 -38 3 -94 1 -124 -5z"/>
    </g>
    <g fill="#000000">
      <path d="M217 1483 l-216 -148 0 -55 0 -55 214 -145 c127 -86 225 -146 242 -148 19 -2 35 4 48 18 18 19 18 22 -3 94 -12 41 -22 79 -22 85 0 7 24 11 63 11 l62 0 33 -73 c18 -40 54 -97 80 -127 52 -59 145 -124 204 -142 l38 -11 0 -304 0 -303 145 0 145 0 0 372 c0 355 -1 374 -21 414 -22 47 -82 84 -135 84 -78 0 -158 50 -194 121 -11 21 -24 67 -29 103 -5 36 -18 76 -28 90 -37 50 -60 56 -217 56 -98 0 -146 4 -146 11 0 6 10 44 22 85 20 72 20 75 3 94 -35 38 -62 26 -288 -127z"/>
    </g>
  </g>
</svg>