<?xml version="1.0" encoding="UTF-8"?>
<svg version="1.1" xmlns="http://www.w3.org/2000/svg"
     width="162.000000pt" height="192.000000pt" viewBox="0 0 162.000000 192.000000">
  <g transform="translate(0.000000,192.000000) scale(0.100000,-0.100000)">
    <g fill="#000000">
      <path d="M671 1759 c-125 -24 -269 -129 -336 -243 -108 -185 -80 -447 66 -601 l49 -52 0 -356 0 -357 140 0 140 0 0 118 0 118 -85 135 c-47 74 -85 144 -85 156 0 12 12 36 27 53 27 33 49 36 121 14 22 -6 22 -6 22 116 0 145 -8 167 -83 225 -85 66 -116 161 -82 251 36 94 108 146 204 146 130 1 221 -89 221 -218 0 -80 -28 -135 -96 -185 -85 -62 -88 -71 -94 -240 l-5 -146 -79 23 -79 22 -23 -23 c-13 -13 -24 -31 -24 -40 0 -23 339 -520 355 -520 16 0 355 498 355 522 0 12 -11 30 -25 41 -25 20 -25 20 -102 -3 l-78 -22 -3 88 -3 87 46 47 c54 56 87 110 116 191 30 83 30 235 0 319 -87 241 -332 383 -580 334z"/>
    </g>
  </g>
</svg>