<?xml version="1.0" encoding="UTF-8"?>
<svg version="1.1" xmlns="http://www.w3.org/2000/svg"
     width="162.000000pt" height="192.000000pt" viewBox="0 0 162.000000 192.000000">
  <g transform="translate(0.000000,192.000000) scale(0.100000,-0.100000)">
    <g fill="#808080">
      <path d="M801 1051 c-32 -6 -35 -10 -61 -86 -33 -102 -93 -215 -148 -283 l-42 -52 47 36 c88 68 225 114 338 114 121 0 265 -52 363 -130 l49 -38 97 97 c53 53 96 99 96 102 0 3 -28 28 -62 56 -158 128 -350 195 -551 192 -51 -1 -107 -4 -126 -8z"/>
    </g>
    <g fill="#000000">
      <path d="M607 1698 c-43 -59 -303 -442 -316 -466 -15 -29 -6 -58 24 -78 25 -16 26 -16 158 22 22 7 23 -26 1 -110 -22 -85 -68 -167 -135 -241 -153 -169 -235 -331 -253 -500 -4 -33 -9 -75 -12 -92 l-5 -33 144 0 144 0 7 61 c16 137 61 230 171 354 136 151 210 306 234 483 5 41 11 76 13 77 2 2 36 -5 75 -17 68 -20 74 -20 98 -4 50 33 39 57 -146 327 -94 137 -172 249 -174 249 -2 0 -15 -15 -28 -32z"/>
    </g>
  </g>
</svg>