<?xml version="1.0" encoding="UTF-8"?>
<svg version="1.1" xmlns="http://www.w3.org/2000/svg"
     width="162.000000pt" height="192.000000pt" viewBox="0 0 162.000000 192.000000">
  <g transform="translate(0.000000,192.000000) scale(0.100000,-0.100000)">
    <g fill="#000000">
      <path d="M799 1728 c-13 -18 -90 -129 -171 -248 -154 -224 -166 -251 -128 -285 20 -18 23 -18 95 3 41 12 79 22 85 22 7 0 10 -176 10 -530 l0 -530 140 0 140 0 0 530 c0 354 3 530 10 530 6 0 44 -10 85 -22 72 -21 75 -21 95 -3 11 10 20 30 20 44 0 27 -324 511 -346 518 -7 2 -23 -11 -35 -29z"/>
    </g>
  </g>
</svg>