<?xml version="1.0" encoding="UTF-8"?>
<svg version="1.1" xmlns="http://www.w3.org/2000/svg"
     width="162.000000pt" height="192.000000pt" viewBox="0 0 162.000000 192.000000">
  <g transform="translate(0.000000,192.000000) scale(0.100000,-0.100000)">
    <g fill="#000000">
      <path d="M794 1530 c-222 -58 -387 -233 -417 -442 l-11 -75 -79 23 c-58 17 -84 21 -98 13 -23 -12 -35 -53 -23 -79 15 -30 338 -500 345 -500 3 0 83 113 177 250 183 267 196 294 149 325 -18 11 -31 13 -53 6 -16 -6 -53 -17 -82 -25 l-53 -15 7 37 c31 169 231 266 395 190 61 -28 109 -73 136 -127 16 -32 18 -73 21 -393 l3 -358 139 0 140 0 0 363 c0 404 -3 433 -65 543 -19 34 -64 89 -102 125 -146 137 -341 188 -529 139z"/>
    </g>
  </g>
</svg>