<?xml version="1.0" encoding="UTF-8"?>
<svg version="1.1" xmlns="http://www.w3.org/2000/svg"
     width="162.000000pt" height="192.000000pt" viewBox="0 0 162.000000 192.000000">
  <g transform="translate(0.000000,192.000000) scale(0.100000,-0.100000)">
    <g fill="#000000">
      <path d="M563 1535 c-194 -42 -370 -206 -417 -390 -13 -48 -16 -126 -16 -422 l0 -363 140 0 139 0 3 358 c3 395 3 392 71 462 153 158 443 78 481 -132 l7 -37 -53 15 c-29 8 -66 19 -82 25 -22 7 -35 5 -53 -6 -47 -31 -34 -58 149 -325 94 -137 174 -250 177 -250 7 0 330 470 345 500 12 26 0 67 -23 79 -14 8 -40 4 -98 -13 l-79 -23 -11 75 c-44 305 -365 515 -680 447z"/>
    </g>
  </g>
</svg>