<?xml version="1.0" encoding="UTF-8"?>
<svg version="1.1" xmlns="http://www.w3.org/2000/svg"
     width="162.000000pt" height="192.000000pt" viewBox="0 0 162.000000 192.000000">
  <g transform="translate(0.000000,192.000000) scale(0.100000,-0.100000)">
    <g fill="#000000">
      <path d="M1183 1645 c-17 -7 -121 -76 -230 -152 -109 -77 -241 -169 -294 -206 l-97 -67 -28 83 c-29 81 -29 82 -66 85 -29 3 -40 -1 -52 -20 -16 -25 -216 -550 -216 -568 0 -7 102 -10 305 -10 l306 0 24 25 c34 33 31 52 -12 91 -21 17 -51 44 -68 58 -25 22 -28 28 -15 35 8 6 89 62 180 125 l165 116 3 -480 2 -480 140 0 140 0 -2 649 -3 650 -29 30 c-26 27 -80 52 -111 51 -5 -1 -24 -7 -42 -15z"/>
    </g>
  </g>
</svg>