<?xml version="1.0" encoding="UTF-8"?>
<svg version="1.1" xmlns="http://www.w3.org/2000/svg"
     width="162.000000pt" height="192.000000pt" viewBox="0 0 162.000000 192.000000">
  <g transform="translate(0.000000,192.000000) scale(0.100000,-0.100000)">
    <g fill="#000000">
      <path d="M320 1713 c0 -13 203 -548 215 -569 17 -27 47 -35 76 -20 16 8 30 34 48 88 l26 77 203 -141 202 -141 0 -388 0 -389 140 0 140 0 0 439 c0 250 -4 450 -9 464 -14 37 -37 55 -279 224 -122 85 -224 158 -227 163 -2 4 25 30 60 59 74 59 82 86 39 120 -26 20 -38 21 -330 21 -167 0 -304 -3 -304 -7z"/>
    </g>
  </g>
</svg>