<?xml version="1.0" encoding="UTF-8"?>
<svg version="1.1" xmlns="http://www.w3.org/2000/svg"
     width="162.000000pt" height="192.000000pt" viewBox="0 0 162.000000 192.000000">
  <g transform="translate(0.000000,192.000000) scale(0.100000,-0.100000)">
    <g fill="#000000">
      <path d="M433 1517 c-139 -94 -251 -176 -250 -182 4 -12 446 -319 494 -342 29 -15 34 -15 57 1 31 20 32 39 7 129 l-20 67 245 0 244 0 0 -480 0 -480 140 0 140 0 0 574 0 573 -23 34 c-45 67 -54 69 -419 69 -181 0 -328 1 -328 3 0 1 9 31 20 65 11 35 20 74 20 86 0 27 -29 56 -56 56 -10 0 -133 -78 -271 -173z"/>
    </g>
  </g>
</svg>