<?xml version='1.0' encoding='utf-8'?>
<svg xmlns="http://www.w3.org/2000/svg" width="24.0" height="24.0" viewBox="0 0 24 24"><path d="M16.75,14.21L16.75,9.88c-0,-3.8 -3.08,-6.88 -6.88,-6.88S3,6.08 3,9.88L3,21l2.5,0L5.5,9.88c-0,-2.42 1.96,-4.38 4.38,-4.38S14.26,7.46 14.26,9.88l-0,4.34l-2.82,-2.82c-0.29,-0.29 -0.77,-0.29 -1.06,0l-0.71,0.71c-0.29,0.29 -0.29,0.77 -0,1.06L15.5,19l5.83,-5.83c0.29,-0.29 0.29,-0.77 -0,-1.06l-0.71,-0.71c-0.29,-0.29 -0.77,-0.29 -1.06,0L16.75,14.21z" fill-rule="nonzero" fill="#000000" fill-opacity="1.0" /></svg>